<?xml version="1.0" encoding="UTF-8" standalone="no"?>
<svg width="114px" height="86px" viewBox="0 0 114 86" version="1.1" xmlns="http://www.w3.org/2000/svg" xmlns:xlink="http://www.w3.org/1999/xlink">
    <!-- Generator: Sketch 43.1 (39012) - http://www.bohemiancoding.com/sketch -->
    <title>code</title>
    <desc>Created with Sketch.</desc>
    <defs></defs>
    <g id="Page-1" stroke="none" stroke-width="1" fill="none" fill-rule="evenodd">
        <g id="Desktop-Portrait" transform="translate(-368.000000, -88.000000)" fill-rule="nonzero">
            <g id="header" transform="translate(264.000000, 88.000000)">
                <g id="code" transform="translate(104.000000, 0.000000)">
                    <path d="M71.0073958,1.20640712 L67.1479618,0.144208651 C66.6512008,-0.0221017812 66.1618509,0.0301984733 65.6860153,0.300671756 C65.2086539,0.571363868 64.8862715,0.97773028 64.7206119,1.5191145 L41.5077706,82.1770483 C41.3421109,82.7186514 41.3939885,83.2293995 41.6636214,83.7077608 C41.9332543,84.1869975 42.3371587,84.509771 42.8772964,84.6760814 L46.7356405,85.7387176 C47.2334914,85.906341 47.7210975,85.8538219 48.1982409,85.5829109 C48.6756023,85.3109059 48.9973308,84.9058524 49.1627725,84.3653435 L72.3762677,3.70609669 C72.5417094,3.16471247 72.4902677,2.65396438 72.2201989,2.17450891 C71.950348,1.69527226 71.5468795,1.37249873 71.0073958,1.20640712 Z" id="Shape" fill="#BD94FF"></path>
                    <path d="M36.2199579,16.9516285 C36.2199579,16.4102443 36.0122294,15.9307888 35.5974264,15.5145751 L32.4854226,12.3905649 C32.0706195,11.9741323 31.5932581,11.765369 31.0539924,11.765369 C30.5147266,11.765369 30.0371472,11.9743511 29.6225621,12.3905649 L0.622531549,41.5045191 C0.20707457,41.9209517 0,42.4001883 0,42.9415725 C0,43.4829567 0.207728489,43.9621934 0.622531549,44.3784071 L29.6223442,73.4923613 C30.0369293,73.9094504 30.5136367,74.1169008 31.0537744,74.1169008 C31.593912,74.1169008 32.0706195,73.9087939 32.4852046,73.4923613 L35.5972084,70.3701018 C36.0120115,69.953888 36.21974,69.4744326 36.21974,68.9323919 C36.21974,68.3916641 36.0120115,67.9124275 35.5972084,67.4962137 L11.1399579,42.9415725 L35.5974264,18.3886819 C36.0128834,17.9724682 36.2199579,17.4930127 36.2199579,16.9516285 Z" id="Shape" fill="#000000"></path>
                    <path d="M113.261943,41.5038626 L84.2612581,12.3899084 C83.846673,11.9736947 83.3690937,11.7647125 82.8306998,11.7647125 C82.2905621,11.7647125 81.8147266,11.9736947 81.3986157,12.3899084 L78.2879197,15.5136997 C77.8733346,15.9301323 77.666478,16.4087125 77.666478,16.9507532 C77.666478,17.4927939 77.8731166,17.9715929 78.2879197,18.3878066 L102.745824,42.9413537 L78.2879197,67.4962137 C77.8733346,67.9124275 77.666478,68.391883 77.666478,68.9323919 C77.666478,69.4746514 77.8731166,69.953888 78.2879197,70.3701018 L81.3986157,73.4923613 C81.8147266,73.9094504 82.2907801,74.1169008 82.8306998,74.1169008 C83.3693117,74.1169008 83.846673,73.9087939 84.2612581,73.4923613 L113.261943,44.378626 C113.676746,43.9624122 113.884038,43.4823003 113.884038,42.940916 C113.884038,42.399313 113.676746,41.9200763 113.261943,41.5038626 Z" id="Shape" fill="#000000"></path>
                </g>
            </g>
        </g>
    </g>
</svg>