<?xml version="1.0" encoding="UTF-8" standalone="no"?>
<svg width="206px" height="193px" viewBox="0 0 206 193" version="1.1" xmlns="http://www.w3.org/2000/svg" xmlns:xlink="http://www.w3.org/1999/xlink">
    <!-- Generator: Sketch 43.1 (39012) - http://www.bohemiancoding.com/sketch -->
    <title>monitor</title>
    <desc>Created with Sketch.</desc>
    <defs></defs>
    <g id="Page-1" stroke="none" stroke-width="1" fill="none" fill-rule="evenodd">
        <g id="Artboard" transform="translate(-66.000000, -159.000000)" fill-rule="nonzero">
            <g id="monitor" transform="translate(66.000000, 159.000000)">
                <path d="M0,137.245517 L0,4.02083333 C0,1.80776667 1.892625,0 4.2036875,0 L201.796312,0 C204.107375,0 206,1.80776667 206,4.02083333 L206,137.245517 L0,137.245517 Z" id="Shape" fill="#000000"></path>
                <path d="M206,137.245517 L206,154.4 C206,156.757817 204.107375,158.687817 201.796312,158.687817 L4.2036875,158.687817 C1.892625,158.687817 0,156.757817 0,154.4 L0,137.245517 L206,137.245517 Z" id="Shape" fill="#E2E2E2"></path>
                <polygon id="Shape" fill="#C9C9C9" points="72.9594063 188.712183 133.040594 188.712183 128.75 158.687817 77.25 158.687817"></polygon>
                <polygon id="Shape" fill="#AAAAAA" points="128.75 158.687817 77.25 158.687817 74.5752187 177.399167 129.751031 165.684067"></polygon>
                <rect id="Rectangle-path" fill="#E2E2E2" x="57.9375" y="188.712183" width="90.125" height="4.28781667"></rect>
                <polygon id="Shape" fill="#939393" points="77.25 158.687817 128.75 158.687817 129.039688 160.714317 75.9142188 168.0451"></polygon>
                <rect id="Rectangle-path" fill="#FFFFFF" x="7.18746875" y="7.18281667" width="191.612188" height="122.876667"></rect>
                <rect id="Rectangle-path" fill="#E04F5F" x="38.625" y="21.4455167" width="128.75" height="51.4666667"></rect>
                <g id="Group" transform="translate(107.023438, 85.643750)" fill="#C9C9C9">
                    <rect id="Rectangle-path" x="0.2575" y="0.1351" width="60.0844063" height="4.28781667"></rect>
                    <rect id="Rectangle-path" x="0.2575" y="13.0017667" width="60.0844063" height="4.28781667"></rect>
                    <rect id="Rectangle-path" x="0.2575" y="25.8684333" width="60.0844063" height="4.28781667"></rect>
                </g>
                <rect id="Rectangle-path" fill="#32BEA6" x="38.625" y="85.77885" width="55.7905937" height="30.02115"></rect>
            </g>
        </g>
    </g>
</svg>