<?xml version="1.0" encoding="UTF-8" standalone="no"?>
<svg width="111px" height="111px" viewBox="0 0 111 111" version="1.1" xmlns="http://www.w3.org/2000/svg" xmlns:xlink="http://www.w3.org/1999/xlink">
    <!-- Generator: Sketch 43.1 (39012) - http://www.bohemiancoding.com/sketch -->
    <title>smartphone</title>
    <desc>Created with Sketch.</desc>
    <defs></defs>
    <g id="Page-1" stroke="none" stroke-width="1" fill="none" fill-rule="evenodd">
        <g id="Artboard" transform="translate(-345.000000, -48.000000)" fill-rule="nonzero">
            <g id="smartphone" transform="translate(345.000000, 48.000000)">
                <circle id="Oval" fill="#8AD5DD" cx="55.5" cy="55.5" r="55.5"></circle>
                <path d="M72.8749688,98.859375 L38.1250313,98.859375 C34.4325469,98.859375 31.413,95.8380937 31.413,92.1473438 L31.413,18.8526562 C31.413,15.1601719 34.4342813,12.140625 38.1250313,12.140625 L72.8749688,12.140625 C76.5674531,12.140625 79.587,15.1619063 79.587,18.8526562 L79.587,92.1473437 C79.587,95.8380937 76.5674531,98.859375 72.8749688,98.859375 Z" id="Shape" fill="#FFFFFF"></path>
                <rect id="Rectangle-path" fill="#2D2D2D" x="34.590375" y="18.9844688" width="41.8157813" height="68.3864063"></rect>
                <g id="Group" transform="translate(48.345703, 14.742188)" fill="#CCCCCC">
                    <path d="M13.4257969,1.53492188 L4.86665625,1.53492188 C4.481625,1.53492188 4.16770313,1.221 4.16770313,0.83596875 L4.16770313,0.83596875 C4.16770313,0.4509375 4.481625,0.137015625 4.86665625,0.137015625 L13.4257969,0.137015625 C13.8108281,0.137015625 14.12475,0.4509375 14.12475,0.83596875 L14.12475,0.83596875 C14.12475,1.221 13.8108281,1.53492188 13.4257969,1.53492188 Z" id="Shape"></path>
                    <circle id="Oval" cx="0.882796875" cy="0.83596875" r="1"></circle>
                    <path d="M7.15429687,81.7688437 C5.27770312,81.7688437 3.7531875,80.2425937 3.7531875,78.366 C3.7531875,76.4911406 5.2794375,74.9648906 7.15429687,74.9648906 C9.02915625,74.9648906 10.5554062,76.4911406 10.5554062,78.366 C10.5554062,80.2425937 9.02915625,81.7688437 7.15429687,81.7688437 Z M7.15429687,75.8320781 C5.75639062,75.8320781 4.620375,76.9680937 4.620375,78.366 C4.620375,79.7639062 5.758125,80.9016562 7.15429687,80.9016562 C8.55046875,80.9016562 9.68821875,79.7639062 9.68821875,78.366 C9.68821875,76.9680937 8.55220312,75.8320781 7.15429687,75.8320781 Z" id="Shape"></path>
                </g>
                <rect id="Rectangle-path" fill="#FFFFFF" x="37.8856875" y="54.7056562" width="35.228625" height="28.4420156"></rect>
                <rect id="Rectangle-path" fill="#DB2B42" x="41.9025" y="57.7373438" width="27.2123437" height="1"></rect>
                <g id="Group" transform="translate(41.841797, 60.919922)" fill="#CCCCCC">
                    <rect id="Rectangle-path" x="0.060703125" y="0.182109375" width="27.2123437" height="1"></rect>
                    <rect id="Rectangle-path" x="0.060703125" y="2.7541875" width="27.2123437" height="1"></rect>
                    <rect id="Rectangle-path" x="0.060703125" y="5.33320312" width="27.2123437" height="1"></rect>
                    <rect id="Rectangle-path" x="0.060703125" y="7.90354687" width="27.2123437" height="1"></rect>
                    <rect id="Rectangle-path" x="0.060703125" y="10.4842969" width="27.2123437" height="1"></rect>
                    <rect id="Rectangle-path" x="0.060703125" y="13.0529062" width="27.2123437" height="1"></rect>
                    <rect id="Rectangle-path" x="0.060703125" y="15.6353906" width="27.2123437" height="1"></rect>
                    <rect id="Rectangle-path" x="0.060703125" y="18.204" width="27.2123437" height="1"></rect>
                </g>
                <g id="Group" transform="translate(46.828125, 26.232422)" fill="#FFFFFF">
                    <circle id="Oval" cx="8.671875" cy="5.21179687" r="5.02101563"></circle>
                    <path d="M17.3333438,21.3570938 C17.3333438,21.3570938 17.3333438,21.5912344 17.3333438,16.913625 C17.3333438,12.2360156 12.2273438,12.1492969 12.2273438,12.1492969 L5.11814063,12.1492969 C5.11814063,12.1492969 0.012140625,12.2065313 0.012140625,16.913625 L0.012140625,21.3570938 L17.3333438,21.3570938 Z" id="Shape"></path>
                </g>
            </g>
        </g>
    </g>
</svg>